<?xml version="1.0" encoding="utf-8"?>
<!-- Generator: Adobe Illustrator 28.0.0, SVG Export Plug-In . SVG Version: 6.00 Build 0)  -->
<svg version="1.1" id="Capa_1" xmlns="http://www.w3.org/2000/svg" xmlns:xlink="http://www.w3.org/1999/xlink" x="0px" y="0px"
	 viewBox="0 0 133.8 133.8" style="enable-background:new 0 0 133.8 133.8;" xml:space="preserve">
<style type="text/css">
	.st0{fill:#333333;}
</style>
<path class="st0" d="M109.3,61.5c-2.5-3.6-7-5.3-11.2-5.2c-5,0.1-9.5,2.8-13,6.1c-2.3,2.2-4.2,4.7-6,7.3c-0.9,1.3-1.8,2.7-2.6,4.1
	c-0.8,1.4-1.8,2.8-2.3,4.3c0,0.1,0.1,0.1,0.1,0.1c0,0,0,0,0,0c-0.1,0.1-0.1,0.2-0.2,0.3c-0.4-0.4-0.9-0.8-1.5-1.1
	c-3-1.3-7.7-1.8-10.4,0.1c0,0-0.1,0.1-0.1,0.1c0-0.1-0.1-0.1-0.1-0.2c-5-8.4-13-15.4-22.8-17.4c-4-0.8-9.9-1.3-13.4,1.4
	c-3.7,2.9-3.9,8.3-2.8,12.5c0.6,2.4,1.6,4.7,2.7,6.9c0.1,0.2,0.2,0.4,0.3,0.6c1.4,9-5.4,20.3,1.3,28.1c3.1,3.6,8.4,4.3,12.9,3.8
	c4.6-0.5,8.8-2.5,12.3-5.4c4.2-3.4,7.5-7.8,10.6-12.1c0,0,0,0,0,0C63.5,96,63.8,96,64,96c1.9,0.3,3.9,0.4,5.8,0
	c1-0.2,1.9-0.7,2.6-1.2c4.4,4,8.8,8.3,13.9,11.4c4.1,2.5,8.8,4.1,13.6,3.1c4.3-0.9,8-3.8,8.9-8.3c1.2-6-2.3-11.8-3.7-17.5
	c0-0.1-0.1-0.1-0.1-0.2c1.8-2.4,3.7-4.8,4.9-7.6C111.8,71.2,112.2,65.7,109.3,61.5z M83.3,65.7c3.2-3.8,7.3-7.1,12.2-8.1
	c3-0.6,6.3-0.3,9,1.2c-2.2-1.1-4.8-1.4-7.2-1.1c-4.5,0.5-8.3,2.9-11.5,6c-2.5,2.4-4.7,5.1-6.8,7.9C80.4,69.6,81.8,67.6,83.3,65.7z
	 M102.7,58.7c3.1,0.9,5.5,3.2,6.5,6.3c1.1,3.4,0.1,6.8-1.7,9.8c-2.2,3.8-6,7.9-6.3,12.5c-0.4,0.9-0.6,1.7-0.8,2.7
	c-0.1,0.6,0.8,0.9,0.9,0.3c0-0.1,0-0.1,0.1-0.2c0,0.1,0.1,0.3,0.1,0.4c0.1,0.4,0.6,0.2,0.6-0.2c-0.1-0.7-0.1-1.3-0.1-2
	c0.4-1.1,1-2.1,1.6-3.1c0.6,2.1,1.2,4.3,1.8,6.4c0.7,2.3,1.7,4.8,1.5,7.2c-0.2,2.4-2,4.7-3.6,6.4c-1.9,2-4.4,2.9-7.2,2.5
	c-4.4-0.6-8.7-3.3-12.4-5.6c-3.8-2.4-7.3-5.2-10.8-8.1c0.9-0.9,1.5-2,1.9-3.3c1.7,0,3.3,0.3,4.8,1.1c1.6,0.8,2.6,2.1,3.8,3.4
	c0.2,0.2,0.6,0,0.5-0.3c-1.3-3.3-5.5-5.1-9-4.8c0.2-0.7,0.3-1.4,0.4-2.1c0.1-0.5,0.1-0.9,0.2-1.5c0.7,0,1.4-0.1,2.1,0
	c0.7,0.1,1.2,0.5,1.9,0.7c0.3,0.1,0.4-0.3,0.3-0.5c-0.8-1-3-1.4-4.2-0.7c0.1-1.1,0.1-2.3,0-3.4c3-1.9,6.5-2.1,9.8-0.6
	c0.3,0.2,0.6-0.3,0.3-0.5c-3.1-2-7.3-1.7-10.1,0.6c-0.2-1.3-0.6-2.6-1.4-3.5C81.2,70.5,89.6,54.7,102.7,58.7z M32.4,60.6
	c0.8-0.1,1.6-0.1,2.3,0c-3.1,0-6.2,0.7-8.7,2.5c-0.4,0.3-0.8,0.7-1.1,1C26.5,61.5,29.3,60.8,32.4,60.6z M26,93.8
	c0,0.1,0,0.3-0.1,0.4c-0.1,0.4-0.1,0.8-0.2,1.3C25.8,95,25.9,94.4,26,93.8z M33.2,112c-3.9-1-6.2-3.7-7.2-7c1.5,3.6,5.1,6,8.9,6.7
	c5.3,1.1,10.7-1.1,15.1-4c2-1.3,3.9-2.8,5.6-4.3C49.8,109.7,42.5,114.4,33.2,112z M50.3,106.9c-4.3,2.9-9.6,5.3-14.9,4.4
	c-5.2-0.9-9.3-4.7-9.6-10.1c-0.1-2.9,0.5-5.8,1-8.7c0.4-2.4,0.7-4.8,1-7.2c0.4,0.8,0.8,1.5,1.3,2.2c0.5,1.1,1,2.2,1.5,3.3
	c0.2,0.5,1,0.3,0.9-0.2c-1.5-5.7-5.6-10.4-7.2-16c-0.6-2.1-1-4.4-0.7-6.5c0.2-1.3,0.7-2.5,1.6-3.6c2-2.2,5.4-3.1,8.3-3.3
	c12.1-0.9,20.9,8.2,28,16.8c0.1,0.9,0.2,1.9,0.3,2.8c-1.4-0.7-3.3-0.8-4.8-0.6c-0.3,0-0.3,0.5,0,0.5c0.9,0,1.8,0,2.6,0.2
	c0.8,0.2,1.4,0.5,2.2,0.6c0.1,1,0.2,1.9,0.2,2.9c-3.4-0.5-6.8,0.5-9.3,2.9c-0.2,0.2,0.1,0.5,0.2,0.3c2.6-2,5.8-2.9,9.1-2.5
	c0,0.4,0,0.8,0,1.1c0,0.6,0,1.2,0,1.8c-3.6,0.3-7,3.6-8.2,6.9c-0.1,0.2,0.2,0.3,0.3,0.1c1-1.6,2.1-3.1,3.6-4.3
	c1.3-1,2.7-1.5,4.2-2.1c-0.1,2-0.3,4-0.2,6c0,0.2,0.1,0.3,0.3,0.3c0,0.1,0.1,0.3,0.2,0.4C58.9,99.8,54.9,103.8,50.3,106.9z
	 M26.9,83.4c0.2,0.4,0.4,0.8,0.6,1.2c-0.3,1.4-0.5,2.7-0.7,4.1C27,87,27.1,85.2,26.9,83.4z M62.9,86.9c0-0.2,0-0.4,0-0.6
	c-0.1-2.7-0.4-5.3-1-7.8c0,0,0.1,0.1,0.1,0.1C62.7,81.3,63,84.1,62.9,86.9z M71.2,94.4c-1.2,0.7-2.7,0.9-4.1,0.9
	c-0.6,0-2.6,0.1-3.8-0.2c3.8,0,8.7,0.3,10.5-3.8c1.6-3.7,0.6-9.3-1.5-12.7c-0.2-0.3-0.5,0-0.4,0.2c1.7,3.2,2.6,7.9,1.6,11.4
	c-1.4,4.7-6.6,4.3-10.6,4.4c0.9-5.3,1.3-11.1-0.7-16.2c0.1,0,0.2-0.1,0.2-0.3c0,0,0.1,0,0.1,0c2.5-1.5,5.9-1.1,8.7-0.3
	c3.6,1,3.7,5,3.5,8.2C74.7,89.2,74,92.8,71.2,94.4z M107.9,99.6c-0.5,5-4.6,8.1-9.4,8.7c-4.8,0.6-9.3-1.4-13.1-4
	c-1.9-1.3-3.7-2.7-5.4-4.1c1.6,1.1,3.3,2.2,5,3.1c4,2.3,8.9,5.5,13.8,5c3.9-0.4,7.5-4.4,8.6-8c0.7-2.3,0-4.7-0.7-6.9
	c-0.9-2.9-1.7-5.8-2.6-8.7c0.1-0.1,0.2-0.3,0.2-0.4C105.4,89.4,108.4,94.2,107.9,99.6z M102.8,84.5c1.3-3.7,4-6.8,5.9-10.4
	c0.9-1.8,1.5-3.7,1.6-5.6c0,2.7-0.8,5.5-2,7.9C106.9,79.3,104.5,81.7,102.8,84.5z"/>
</svg>
