<?xml version="1.0" encoding="utf-8"?>
<!-- Generator: Adobe Illustrator 26.0.1, SVG Export Plug-In . SVG Version: 6.00 Build 0)  -->
<svg version="1.1" id="Capa_1" xmlns="http://www.w3.org/2000/svg" xmlns:xlink="http://www.w3.org/1999/xlink" x="0px" y="0px"
	 viewBox="0 0 133.8 133.8" style="enable-background:new 0 0 133.8 133.8;" xml:space="preserve">
<style type="text/css">
	.st0{fill:#333333;}
	.st1{fill-rule:evenodd;clip-rule:evenodd;fill:#333333;}
</style>
<g>
	<g>
		<path class="st0" d="M96.9,44.9c1.3,0.3,2.6,0.5,3.9,0.9c0.5,0.1,0.6,0.1,0.9,0.3c0,0,0.3,0.3,0.3,0.4c0.9,1.3,1,3.3,1.2,4.9
			c0.3,3.3,0.4,6.7,0.4,10c0.1,4.9,0.1,9.9,0.1,14.8c0.1,8.3,0.2,16.7,0.6,25c0,1.1,0.1,2.2,0.2,3.3c0,0.6,0.1,0.9-0.3,1.4
			c-0.9,1.2-3,1.7-4.5,2.1c-3.5,0.8-7.1,1-10.7,1c-5.2,0.1-10.3-0.2-15.5-0.7c-1-0.1-1,1.5,0,1.6c4.9,0.4,9.8,0.7,14.7,0.7
			c3.5,0,7-0.2,10.4-0.8c2-0.4,4.3-0.8,6-2.1c0.6-0.5,1.1-1.1,1.4-1.8c0.2-0.8,0.1-1.6,0-2.4c-0.5-7.9-0.6-15.9-0.7-23.8
			c-0.1-5.3-0.1-10.6-0.2-15.9c0-3.8-0.1-7.7-0.4-11.5c-0.2-2.1-0.3-4.6-1.4-6.5c-0.4-0.6-0.9-1.1-1.5-1.3c-1.5-0.5-3.1-0.7-4.6-1
			C96.3,43.2,95.9,44.7,96.9,44.9L96.9,44.9z"/>
	</g>
	<path class="st0" d="M39.7,38.1c1.2,0.1,2.5,0.2,3.7,0.4c3,0.3,6,0.6,9.1,1c8.4,0.9,16.8,1.8,25.3,2.9c6.7,0.8,13.5,1.5,20.2,2.8
		c0.8,0.1,1.5,0.3,2.3,0.5c0.1,0,0.2,0.1,0.3,0.1c0.2,0.1-0.1-0.1,0.1,0c-0.1-0.1,0.1,0.1,0.2,0.2c0,0,0.2,0.2,0.3,0.4
		c0.5,0.9,0.6,2.3,0.6,3.4c0.1,2.2-0.1,4.4-0.3,6.6c-0.6,7.5-1.7,15-2.6,22.5c-0.8,6.8-1.5,13.6-2.2,20.4c-0.2,1.8-0.1,3.7-0.4,5.5
		c0,0.2-0.3,0.7-0.5,1c-0.4,0.5-1,0.8-1.5,1.1c-1.7,0.9-3.6,1.4-5.5,1.7c-2.8,0.5-5.6,0.5-8.4,0.5c-8-0.2-15.6-2.2-23.4-3.8
		c-6.8-1.4-13.7-2.5-20.5-4.2c-2.1-0.5-4.2-1-6.1-1.9c-0.6-0.3-1.2-0.6-1.7-1c-0.2-0.2-0.2-0.2-0.3-0.4c0,0.1-0.1-0.4-0.1-0.2
		c-0.3-2.4,0.1-5.1,0.3-7.5c0.8-9.3,2-18.6,3.4-27.8c0.6-4,1.2-7.9,2-11.8c0.3-1.6,0.8-3.1,1.2-4.7c0.4-1.4,0.7-2.7,1-4.1
		c0.2-0.8,0.3-1.7,0.6-2.6c0.2-0.4,0.4-0.7,0.6-0.8C38.2,38,39,38.1,39.7,38.1c1,0,1-1.5,0-1.6c-1.4-0.1-3.1,0-3.9,1.3
		c-0.4,0.7-0.6,1.4-0.7,2.2c-0.3,1.2-0.5,2.5-0.8,3.7c-0.5,1.9-1.1,3.7-1.5,5.6c-0.4,1.7-0.7,3.5-1,5.2c-1.7,9.6-2.9,19.3-4,29.1
		c-0.4,3.7-0.8,7.5-1,11.3c0,0.9-0.1,1.9,0,2.8c0.2,1.3,1.2,2,2.2,2.6c1.9,1,4,1.5,6,2.1c3,0.8,6.1,1.4,9.1,2
		c3.8,0.8,7.6,1.5,11.4,2.2c4.3,0.9,8.5,1.9,12.8,2.7c6.5,1.2,13.3,1.9,19.9,0.9c2.1-0.3,4.2-0.8,6.1-1.7c1.2-0.6,2.5-1.4,3-2.7
		c0.3-0.6,0.3-1.2,0.3-1.9c0.1-0.9,0.1-1.8,0.2-2.7c0.2-2.8,0.5-5.6,0.8-8.4c0.8-8.1,1.8-16.2,2.8-24.3c0.7-6,1.7-12.1,1.6-18.2
		c0-1.9,0-5.3-2.2-6.2c-1.6-0.6-3.6-0.8-5.3-1.1c-3.5-0.5-6.9-1-10.4-1.4c-8.8-1.1-17.6-2.1-26.4-3.1C53,38,46.9,37.3,40.8,36.7
		c-0.4,0-0.7-0.1-1.1-0.1C38.7,36.5,38.7,38.1,39.7,38.1z"/>
	<g>
		<path class="st0" d="M47.9,46.7c-0.1,1.1-0.8,2.1-1.9,2.5c-1.1,0.3-2.3,0-3-0.9c-0.7-1-0.7-2.2-0.1-3.2c0.6-0.9,1.8-1.4,2.9-1.1
			C47,44.2,47.9,45.3,47.9,46.7c0,1,1.5,1,1.6,0c0.1-1.8-1-3.4-2.6-4.1c-1.6-0.7-3.6-0.3-4.8,1.1c-1.2,1.4-1.4,3.3-0.6,4.9
			c0.9,1.6,2.7,2.4,4.4,2.2c2-0.3,3.5-2.1,3.6-4.1c0-0.4-0.4-0.8-0.8-0.8C48.2,45.9,47.9,46.3,47.9,46.7z"/>
		<path class="st0" d="M62.3,48.9c-0.1,1.1-0.8,2.1-1.9,2.5c-1.1,0.3-2.3,0-3-0.9c-0.7-1-0.7-2.2-0.1-3.2c0.6-0.9,1.8-1.4,2.9-1.1
			C61.5,46.4,62.3,47.6,62.3,48.9c0,1,1.5,1,1.6,0c0.1-1.8-1-3.4-2.6-4.1c-1.6-0.7-3.6-0.3-4.8,1.1c-1.2,1.4-1.4,3.3-0.6,4.9
			c0.9,1.6,2.7,2.4,4.4,2.2c2-0.3,3.5-2.1,3.6-4.1c0-0.4-0.4-0.8-0.8-0.8C62.6,48.2,62.3,48.5,62.3,48.9z"/>
		<path class="st0" d="M76.9,51.2c-0.1,1.1-0.8,2.1-1.9,2.5c-1.1,0.3-2.3,0-3-0.9c-0.7-1-0.7-2.2-0.1-3.2c0.6-0.9,1.8-1.4,2.9-1.1
			C76.1,48.7,76.9,49.9,76.9,51.2c0,1,1.5,1,1.6,0c0.1-1.8-1-3.4-2.6-4.1c-1.6-0.7-3.6-0.3-4.8,1.1c-1.2,1.4-1.4,3.3-0.6,4.9
			c0.9,1.6,2.7,2.4,4.4,2.2c2-0.3,3.5-2.1,3.6-4.1c0-0.4-0.4-0.8-0.8-0.8C77.2,50.4,76.9,50.8,76.9,51.2z"/>
		<path class="st0" d="M91.8,53.5c-0.1,1.1-0.8,2.1-1.9,2.5c-1.1,0.3-2.3,0-3-0.9c-0.7-1-0.7-2.2-0.1-3.2c0.6-0.9,1.8-1.4,2.9-1.1
			C91,51,91.9,52.2,91.8,53.5c0,1,1.5,1,1.6,0c0.1-1.8-1-3.4-2.6-4.1c-1.6-0.7-3.6-0.3-4.8,1.1c-1.2,1.4-1.4,3.3-0.6,4.9
			c0.9,1.6,2.7,2.4,4.4,2.2c2-0.3,3.5-2.1,3.6-4.1c0-0.4-0.4-0.8-0.8-0.8C92.2,52.7,91.9,53.1,91.8,53.5z"/>
	</g>
	<path class="st0" d="M32.7,52.8c2.3,0.3,4.5,0.6,6.8,1c5.5,0.8,11,1.6,16.5,2.3c6.6,0.9,13.2,1.9,19.9,2.8
		c5.7,0.8,11.4,1.6,17.2,2.4c2.8,0.4,5.6,0.9,8.4,1.2c0,0,0.1,0,0.1,0c1,0.1,1.4-1.4,0.4-1.5c-2.3-0.3-4.5-0.6-6.8-1
		c-5.5-0.8-11-1.6-16.5-2.3c-6.6-0.9-13.2-1.9-19.9-2.8c-5.7-0.8-11.4-1.6-17.2-2.4c-2.8-0.4-5.6-0.9-8.4-1.2c0,0-0.1,0-0.1,0
		C32.2,51.2,31.7,52.7,32.7,52.8L32.7,52.8z"/>
	<path class="st0" d="M50.5,38.3c0.1-1.6-1.8-2.2-3.1-2.2c-1.3,0-2.4,0.6-3.3,1.5c-1.7,1.9-2.4,4.9-0.7,7c1.2,1.4,3.2,1.8,5,1.8
		c1,0,1-1.6,0-1.6c-0.8,0-1.5,0-2.3-0.3c-0.3-0.1-0.4-0.1-0.7-0.3c-0.1-0.1-0.2-0.1-0.3-0.2C44.9,44,45,44,44.9,43.9
		c-0.1-0.1-0.2-0.2-0.3-0.3c0,0-0.1-0.1-0.1-0.1c0.1,0.1,0,0,0,0c-0.1-0.1-0.1-0.2-0.2-0.3c0,0,0-0.1-0.1-0.1c0,0,0-0.1-0.1-0.1
		c0,0.1,0,0.1,0,0c-0.1-0.2-0.1-0.4-0.2-0.7c0,0,0-0.2,0,0c0-0.1,0-0.1,0-0.2c0-0.1,0-0.3,0-0.4c0-0.1,0-0.3,0-0.4c0-0.2,0,0.2,0,0
		c0-0.1,0-0.1,0-0.2c0-0.3,0.1-0.5,0.2-0.7c0,0,0.1-0.3,0.1-0.2c0.1-0.1,0.1-0.2,0.2-0.4c0.1-0.2,0.3-0.5,0.4-0.7c0,0,0.1-0.2,0,0
		c0,0,0.1-0.1,0.1-0.1c0.1-0.1,0.2-0.2,0.2-0.3c0.1-0.1,0.2-0.2,0.3-0.3c0,0,0.1-0.1,0.1-0.1c0,0,0.1-0.1,0.1-0.1
		c-0.1,0.1-0.1,0.1,0,0c0.2-0.1,0.4-0.3,0.6-0.4c0.1,0,0.1-0.1,0.2-0.1c-0.2,0.1,0,0,0,0c0.1,0,0.2-0.1,0.3-0.1c0.1,0,0.1,0,0.2,0
		c0.2,0,0,0,0.1,0c0.1,0,0.2,0,0.4,0c0.4,0,0.9,0.1,1.2,0.3c0,0,0.2,0.2,0.1,0.1c0,0,0.2,0.2,0.1,0.1c0,0,0.1,0.1,0.1,0.1
		c0.1,0.1,0,0,0,0c0,0.1,0,0.3,0,0c0,0,0,0.1,0,0.1C48.9,39.3,50.4,39.3,50.5,38.3L50.5,38.3z"/>
	<path class="st0" d="M79.6,41.9c0.1-1.6-1.9-2.3-3.2-2.2c-1.3,0-2.5,0.7-3.3,1.7c-1.7,2-2.4,5.2-0.7,7.3c1.2,1.5,3.2,2,5,2
		c1,0,1-1.6,0-1.6c-0.8,0-1.5-0.1-2.3-0.3c-0.5-0.2-1-0.4-1.3-0.8c-0.2-0.2-0.3-0.3-0.4-0.5c-0.1-0.1-0.1-0.2-0.2-0.3
		c0-0.1-0.1-0.1-0.1-0.2c0.1,0.1,0,0,0-0.1c-0.1-0.2-0.1-0.5-0.2-0.7c0-0.2,0,0.2,0-0.1c0,0,0-0.1,0-0.1c0-0.2,0-0.3,0-0.5
		c0-0.5,0.1-0.8,0.3-1.4c0-0.1,0.1-0.2,0.1-0.3c0.1-0.2-0.1,0.1,0-0.1c0-0.1,0-0.1,0.1-0.2c0.1-0.2,0.3-0.5,0.4-0.7
		c0.1-0.1,0.1-0.2,0.2-0.3c-0.1,0.1,0.1-0.2,0.2-0.2c0.2-0.2,0.3-0.4,0.5-0.5c0.2-0.1-0.1,0.1,0.1,0c0.1,0,0.1-0.1,0.2-0.1
		c0.1-0.1,0.2-0.1,0.3-0.2c0.1-0.1,0.2-0.1,0.3-0.1c-0.1,0.1,0.2-0.1,0.3-0.1c0.1,0,0.2-0.1,0.4-0.1c-0.2,0,0,0,0,0
		c0.1,0,0.1,0,0.2,0c0.4,0,0.8,0.1,1.2,0.2c0.2,0.1,0.1,0.1,0.3,0.2c-0.1-0.1,0.1,0.3,0,0c0,0.1,0.1,0.4,0,0c0,0,0,0.1,0,0.1
		C78,42.9,79.6,42.9,79.6,41.9L79.6,41.9z"/>
	<path class="st0" d="M64.6,39.7c0.1-1.6-1.9-2.3-3.2-2.2c-1.3,0-2.5,0.7-3.3,1.7c-1.7,2-2.4,5.2-0.7,7.3c1.2,1.5,3.2,2,5,2
		c1,0,1-1.6,0-1.6c-0.8,0-1.5-0.1-2.3-0.3c-0.5-0.2-1-0.4-1.3-0.8c-0.2-0.2-0.3-0.3-0.4-0.5c-0.1-0.1-0.1-0.2-0.2-0.3
		c0-0.1-0.1-0.1-0.1-0.2c0.1,0.1,0,0,0-0.1c-0.1-0.2-0.1-0.5-0.2-0.7c0-0.2,0,0.2,0-0.1c0,0,0-0.1,0-0.1c0-0.2,0-0.3,0-0.5
		c0-0.5,0.1-0.8,0.3-1.4c0-0.1,0.1-0.2,0.1-0.3c0.1-0.2-0.1,0.1,0-0.1c0-0.1,0-0.1,0.1-0.2c0.1-0.2,0.3-0.5,0.4-0.7
		c0.1-0.1,0.1-0.2,0.2-0.3c-0.1,0.1,0.1-0.2,0.2-0.2c0.2-0.2,0.3-0.4,0.5-0.5c0.2-0.1-0.1,0.1,0.1,0c0.1,0,0.1-0.1,0.2-0.1
		c0.1-0.1,0.2-0.1,0.3-0.2c0.1-0.1,0.2-0.1,0.3-0.1c-0.1,0.1,0.2-0.1,0.3-0.1c0.1,0,0.2-0.1,0.4-0.1c-0.2,0,0,0,0,0
		c0.1,0,0.1,0,0.2,0c0.4,0,0.8,0.1,1.2,0.2c0.2,0.1,0.1,0.1,0.3,0.2c-0.1-0.1,0.1,0.3,0,0c0,0.1,0.1,0.4,0,0c0,0,0,0.1,0,0.1
		C63,40.7,64.5,40.7,64.6,39.7L64.6,39.7z"/>
	<path class="st0" d="M94.2,43.6c0.1-1.6-1.9-2.3-3.2-2.2c-1.3,0-2.5,0.7-3.3,1.7c-1.7,2-2.4,5.2-0.7,7.3c1.2,1.5,3.2,2,5,2
		c1,0,1-1.6,0-1.6c-0.8,0-1.5-0.1-2.3-0.3c-0.5-0.2-1-0.4-1.3-0.8c-0.2-0.2-0.3-0.3-0.4-0.5C88.1,49.2,88,49.1,88,49
		c0-0.1-0.1-0.1-0.1-0.2c0.1,0.1,0,0,0-0.1c-0.1-0.2-0.1-0.5-0.2-0.7c0-0.2,0,0.2,0-0.1c0,0,0-0.1,0-0.1c0-0.2,0-0.3,0-0.5
		c0-0.5,0.1-0.8,0.3-1.4c0-0.1,0.1-0.2,0.1-0.3c0.1-0.2-0.1,0.1,0-0.1c0-0.1,0-0.1,0.1-0.2c0.1-0.2,0.3-0.5,0.4-0.7
		c0.1-0.1,0.1-0.2,0.2-0.3c-0.1,0.1,0.1-0.2,0.2-0.2c0.2-0.2,0.3-0.4,0.5-0.5c0.2-0.1-0.1,0.1,0.1,0c0.1,0,0.1-0.1,0.2-0.1
		c0.1-0.1,0.2-0.1,0.3-0.2c0.1-0.1,0.2-0.1,0.3-0.1c-0.1,0.1,0.2-0.1,0.3-0.1c0.1,0,0.2-0.1,0.4-0.1c-0.2,0,0,0,0,0
		c0.1,0,0.1,0,0.2,0c0.4,0,0.8,0.1,1.2,0.2c0.2,0.1,0.1,0.1,0.3,0.2c-0.1-0.1,0.1,0.3,0,0c0,0.1,0.1,0.4,0,0c0,0,0,0.1,0,0.1
		C92.6,44.6,94.2,44.6,94.2,43.6L94.2,43.6z"/>
	<path class="st0" d="M88.9,72.7c-0.1,0-0.2,0.1-0.3,0.1C88.7,72.8,88.8,72.8,88.9,72.7c-0.3,0-0.5,0.1-0.7,0.3
		C88.2,73,88.1,73,88,73.1c0,0,0,0,0.1,0c-0.1,0-0.1,0-0.2,0c-0.1,0-0.1,0.1-0.2,0.1c-0.2,0.1-0.4,0.2-0.6,0.3c0,0,0,0-0.1,0
		c0,0,0,0,0,0c-0.1,0.1-0.2,0.1-0.3,0.1c-0.1,0.1-0.2,0.1-0.3,0.2c-0.2,0.1-0.4,0.2-0.6,0.4c0,0-0.1,0.1-0.1,0.1c-0.1,0,0,0,0,0
		c0.1,0,0.1,0-0.1,0c-0.1,0.1-0.3,0.1-0.4,0.2c-0.4,0.2-0.8,0.5-1.1,0.8c-0.3,0.2-0.5,0.4-0.6,0.8c-0.1,0.4,0,0.8,0.2,1.2
		c0.5,0.6,1.4,0.7,2,0.1c0.3-0.3,0.6-0.7,0.9-1c0.1-0.1,0.2-0.3,0.3-0.4c0,0,0.1-0.1,0.1-0.1c0,0-0.1,0.1,0,0
		c0.1-0.2,0.3-0.4,0.5-0.5c0.1-0.1,0.2-0.2,0.3-0.3c0-0.1,0.1-0.1,0.1-0.2c0.1-0.1-0.1,0.1,0,0c0.1-0.2,0.3-0.4,0.4-0.5
		c0-0.1,0.1-0.1,0.1-0.2c0.1-0.1,0.1-0.2,0.1-0.2c0-0.1,0.1-0.1,0.2-0.2c0.1-0.2,0.3-0.4,0.3-0.6c0,0.1-0.1,0.1-0.1,0.2
		c0.1-0.1,0.1-0.2,0.2-0.3C89.2,72.8,89.1,72.7,88.9,72.7L88.9,72.7z"/>
	<path class="st0" d="M84.3,79.3c0.1,0.2,0.2,0.2,0.4,0.3c0.3,0.1,0.6,0.2,0.9,0.3c0.3,0.1,0.7,0.2,1,0.2c0.3,0.1,0.6,0.1,1,0.2
		c0.7,0.1,1.4,0.2,2.1,0.2c0.3,0,0.7,0.1,1,0.1c0.1,0,0.3,0,0.4,0c0.3,0,0.6-0.1,0.9-0.3c0.8-0.4,0.8-1.7,0-2.1
		c-0.3-0.2-0.6-0.3-0.9-0.3c-0.2,0-0.3,0-0.5,0c-0.4,0-0.7,0.1-1.1,0.1c-0.7,0.1-1.4,0.1-2.1,0.2c-0.3,0-0.6,0.1-1,0.2
		c-0.3,0.1-0.6,0.1-0.9,0.3c-0.3,0.1-0.6,0.2-0.8,0.3C84.5,79.1,84.2,79.2,84.3,79.3L84.3,79.3z"/>
	<path class="st0" d="M83.9,83.1c0,0.1,0,0.2-0.1,0.3c0,0.1,0,0.2,0,0.3c0,0,0,0.1,0,0c0-0.2,0,0.2,0,0.2c0,0.1,0.1,0.2,0.1,0.3
		c0.1,0.1,0,0,0,0c0-0.1,0-0.1,0,0c0,0.1,0,0.1,0.1,0.1c0.2,0.5,0.7,0.8,1.1,1.1c0.7,0.5,1.5,0.8,2.3,1.2c0.5,0.2,1,0.4,1.5,0.3
		c0.5-0.1,1-0.5,1.2-1c0.2-0.6-0.1-1.3-0.6-1.6c-0.2-0.1-0.5-0.2-0.8-0.2c-0.2,0-0.4-0.1-0.6-0.2c-0.4-0.1-0.7-0.2-1.1-0.4
		c-0.2-0.1-0.4-0.2-0.6-0.2c-0.1,0-0.2-0.1-0.3-0.1c-0.1,0,0.1,0,0.1,0c0,0-0.1-0.1-0.2-0.1c-0.2-0.1-0.5-0.2-0.7-0.3
		c-0.1,0-0.2,0-0.3,0c-0.1,0,0.2,0.1,0.1,0c-0.2-0.1-0.4-0.1-0.6,0c0.1,0,0.3,0,0.4,0c-0.1,0-0.1,0-0.2,0c0.1,0-0.2,0-0.1,0
		C84.3,82.7,84,82.9,83.9,83.1L83.9,83.1z"/>
	<path class="st0" d="M48,64c-0.1,0.1-0.2,0.2-0.2,0.4c0,0,0.1-0.1,0.1-0.1c-0.1,0.1-0.1,0.2-0.2,0.3c0-0.1,0.1-0.1,0.1-0.2
		c-0.3,0.3-0.2,0.8-0.2,1.2c0-0.1,0-0.3,0-0.4c0,0.2,0,0.4,0,0.6c0,0.2,0.1,0.3,0.2,0.5c0,0.1,0.1,0.1,0.1,0.2c0.1,0.2-0.1-0.2,0,0
		c0.1,0.2,0.2,0.4,0.3,0.5c0.1,0.3,0.3,0.5,0.5,0.7c0.1,0.1,0.2,0.2,0.2,0.3c0,0.1,0.1,0.1,0.1,0.2c0.2,0.2,0.3,0.4,0.6,0.6
		c0.5,0.3,1.2,0.2,1.6-0.2c0.4-0.5,0.5-1.1,0.2-1.6c-0.2-0.4-0.6-0.6-0.9-0.9c-0.3-0.3-0.6-0.5-1-0.7c-0.2-0.1,0.1,0.1,0,0
		c-0.1,0-0.1-0.1-0.2-0.1c-0.1-0.1-0.3-0.3-0.4-0.4c-0.1,0-0.1-0.1-0.2-0.1c0.2,0.1,0.3,0.2,0.2,0.1c0,0-0.1-0.2-0.1-0.1
		c0,0-0.1-0.1-0.1-0.1c-0.1-0.1-0.1-0.2-0.3-0.2c0.1,0.1,0.1,0.1,0.2,0.2c-0.1-0.1-0.1-0.2-0.2-0.2c0,0,0.1,0.1,0.1,0.1
		c0-0.1,0-0.2-0.1-0.3C48.3,63.9,48.1,63.9,48,64L48,64z"/>
	<path class="st0" d="M42,69.6c0.1,0.1,0.2,0.2,0.3,0.3c0.1,0.1,0.2,0.1,0.2,0.1c0.1,0.1,0.2,0.2,0.3,0.2c0.1,0.1,0.2,0.1,0.2,0.1
		c0.4,0.2,0.8,0.4,1.1,0.6c0.4,0.2,0.9,0.4,1.3,0.6c0.5,0.2,0.9,0.4,1.5,0.4c0.5,0,1-0.4,1.1-0.9c0.1-0.5-0.1-1-0.5-1.3
		c-0.4-0.3-0.9-0.4-1.4-0.5c-0.4-0.1-0.8-0.2-1.2-0.3c-0.2,0-0.4-0.1-0.6-0.1c-0.1,0-0.2,0-0.4,0c0.1,0,0.1,0,0,0
		c-0.1,0-0.3-0.1-0.5-0.1c-0.2,0-0.4,0-0.6,0c0,0,0,0-0.1,0c-0.1,0-0.1,0-0.2,0c-0.2,0-0.3,0-0.4,0.1C42,68.9,41.8,69.3,42,69.6
		L42,69.6z"/>
	<path class="st0" d="M39.8,74.6c0.2,0.5,0.8,0.7,1.2,0.9c0.2,0.1,0.4,0.2,0.6,0.2c0.2,0.1,0.5,0.2,0.7,0.2c0.5,0.1,0.9,0.2,1.4,0.4
		c0.6,0.2,1.1,0.4,1.7,0.4c1.3,0,1.8-1.8,0.7-2.4c-0.6-0.3-1.2-0.4-1.8-0.5c-0.6-0.1-1.2-0.2-1.8-0.2c-0.6,0-1.2,0-1.7,0.1
		C40.6,73.8,39.6,74.1,39.8,74.6L39.8,74.6z"/>
	<path class="st0" d="M37.1,33.9c0.1-0.2-0.1-0.4-0.4-0.4c-0.4-0.1-0.7,0.2-1,0.4c-0.8,0.6-1.6,1.2-2.4,1.9
		c-0.8,0.7-1.4,1.6-1.8,2.5c-0.2,0.5-0.4,1-0.4,1.6c0,0.5,0.1,1,0.3,1.5c0.1,0.3,0.5,0.3,0.6,0c0.2-0.7,0.6-1.4,0.9-2.1
		c0.3-0.7,0.6-1.4,1.1-2c0.4-0.6,0.9-1.2,1.4-1.8c0.3-0.3,0.5-0.6,0.8-0.9c0.2-0.2,0.4-0.6,0.7-0.5C37,34,37.1,33.9,37.1,33.9
		L37.1,33.9z"/>
	<path class="st0" d="M34.2,32c-0.2,0.1-0.3,0.1-0.5,0.1c-0.2,0.1-0.3,0.1-0.5,0.2c-0.3,0.1-0.6,0.2-0.9,0.3
		c-0.3,0.1-0.5,0.1-0.8,0.3c-0.3,0.1-0.5,0.2-0.8,0.4c-0.5,0.3-1,0.7-1.2,1.3c-0.1,0.5,0,1.2,0.5,1.5c0.1,0.1,0.3,0,0.3-0.2
		c0-0.2,0-0.4,0.1-0.6c0.1-0.2,0.2-0.3,0.3-0.5c0.2-0.4,0.4-0.7,0.8-1c0.2-0.1,0.4-0.3,0.6-0.4c0.2-0.1,0.4-0.3,0.7-0.4
		c0.2-0.1,0.5-0.3,0.7-0.4c0.1-0.1,0.2-0.1,0.3-0.2c0.1-0.1,0.2-0.2,0.4-0.3C34.3,32.1,34.2,32,34.2,32L34.2,32z"/>
	<path class="st0" d="M109.1,101.8c-0.2,0.2-0.1,0.4,0,0.6c0,0.3,0,0.6,0.1,0.9c0,0.6,0,1.2,0,1.8c0,0.6,0,1.1-0.2,1.6
		c-0.1,0.3-0.2,0.4-0.3,0.6c-0.1,0.3-0.3,0.5-0.3,0.8c0.1-0.2,0.1-0.3,0.2-0.5c-0.1,0.1-0.2,0.2-0.3,0.2c0.1,0,0.2-0.1,0.2-0.1
		c-0.1,0-0.2,0.1-0.3,0.1c-0.3,0.1-0.4,0.4-0.2,0.6c0.3,0.3,0.8,0.4,1.2,0.3c-0.2,0-0.4,0-0.5-0.1c0.4,0.2,0.9,0.1,1.2-0.1
		c0.4-0.2,0.7-0.7,0.8-1.1c0.2-0.8,0.1-1.6,0-2.4c-0.2-0.7-0.4-1.4-0.7-2.1C109.9,102.9,109.3,101.6,109.1,101.8L109.1,101.8z"/>
	<path class="st0" d="M111.4,99.8c0.8,0.7,1.3,1.6,1.6,2.6c0.3,1,0.2,2,0.1,3c0,0.2,0.2,0.3,0.3,0.1c1-2-0.1-4.6-1.9-5.9
		C111.4,99.6,111.3,99.8,111.4,99.8L111.4,99.8z"/>
	<path class="st1" d="M72.9,72.1c4.5,1.4,7.8,8.2,3.6,12.3c-3.5,3.4-10.9,2.8-14.3,6c-1,1-1.3,2.6-2.6,2.2c-1.5-0.4-3-5.4-3.5-6.6
		c-1.6-3.3-4.8-7.7-3.9-11.4c1.3-4.7,7-6.5,10.6-3.9c0.9,0.7,0.9,2.2,2,2.6c1.1,0.4,2.6-1.5,3.7-1.7C69.5,71.4,70.9,71.4,72.9,72.1z
		 M75.2,82c2.7-4.7-2.7-9.8-7.2-7.9c-1.2,0.5-3.3,4.9-4.7,4.4c-1.8-0.6-1.2-4.8-2.7-5.8c-2-1.6-4.6-0.4-5.7,0.6
		c-3.8,4.3,3.3,12.3,5.1,15.9C64.1,85.1,72.1,87.2,75.2,82z"/>
</g>
</svg>
